<?xml version="1.0" encoding="utf-8"?>
<!-- Generator: Adobe Illustrator 19.2.1, SVG Export Plug-In . SVG Version: 6.00 Build 0)  -->
<svg version="1.1" id="Layer_1" xmlns="http://www.w3.org/2000/svg" xmlns:xlink="http://www.w3.org/1999/xlink" x="0px" y="0px" viewBox="0 0 1219.4 177.2" style="enable-background:new 0 0 1219.4 177.2;" xml:space="preserve">
<style type="text/css">
    @import url('https://fonts.googleapis.com/css?family=Roboto:400,900');
	.st0d{fill:#E9E6D9;}
	.st1d{fill:none;stroke:#CDCBBF;stroke-width:4;stroke-miterlimit:10;}
	.st2d{fill:#CDCBBF;}
	.st3d{fill:#30302F;}
	.st4d{font-family:'Roboto'; font-weight: 900;}
	.st5d{font-size:12.4177px;}
	.st6d{font-size:28.5145px;}
	.st7d{font-family:'Roboto'; font-weight: 400;}
	.st8d{fill:#40B771;}
	.st9d{font-size:21.8929px;}
	.st10d{fill:none;stroke:#E9E6D9;stroke-width:3;stroke-miterlimit:10;}
	.st11d{fill:#2F2F2F;}
	.st12d{font-size:18.3965px;}
	.st13d{fill:#E8E5D9;}
	.st14d{fill:#256788;}
	.st15d{font-size:69.2595px;}
	.st16d{font-size:15.391px;}
	.st17d{fill:none;stroke:#2F2F2F;stroke-width:3.4002;stroke-miterlimit:10;}
	.st18d{display:none;fill:none;stroke:#CDCBBF;stroke-width:2;stroke-miterlimit:10;}
	.st19d{fill:none;stroke:#CDCBBF;stroke-width:2;stroke-miterlimit:10;}
	.st20d{display:none;}
	.st21d{display:inline;}
	.st22d{fill:none;}
	.st23d{display:inline;fill:none;stroke:#CDCBBF;stroke-width:4;stroke-miterlimit:10;}
	.st24d{display:inline;fill:#40B771;}
	.st25d{fill:url(#SVGID_1_);stroke:#000000;stroke-width:2.6693;stroke-linejoin:round;stroke-miterlimit:10;}
	.st26d{fill:url(#SVGID_2_);}
	.st27d{fill:none;stroke:#000000;stroke-width:2.6693;stroke-linejoin:round;stroke-miterlimit:10;}
	.st28d{fill:#FCF6B5;stroke:#000000;stroke-width:2.6693;stroke-linejoin:round;stroke-miterlimit:10;}
	.st29d{fill:#EC8C5C;}
	.st30d{fill:#FCF6B5;}
	.st31d{fill:url(#SVGID_3_);}
	.st32d{fill:url(#SVGID_4_);}
	.st33d{fill:url(#SVGID_5_);}
	.st34d{fill:url(#SVGID_6_);}
	.st35d{fill:url(#SVGID_7_);}
	.st36d{fill:url(#SVGID_8_);}
	.st37d{fill:url(#SVGID_9_);}
	.st38d{fill:url(#SVGID_10_);}
	.st39d{fill:url(#SVGID_11_);}
</style>
<g id="day">
	<g id="background_1_">
		<rect y="2.1" class="st0d" width="1219.4" height="175.5"/>
		<line class="st1d" x1="28.6" y1="0.4" x2="28.6" y2="177.7"/>
		<line class="st1d" x1="1190.1" y1="0.4" x2="1190.1" y2="177.6"/>
		<path class="st2d" d="M1173.9,4.4v10.5v148.4v10.5h-7.9H48h-7.9v-10.5V14.8V4.3H48h1118.1h7.9 M1178,0.4h-4.1h-7.9H48h-7.9H36v4
			v10.5v148.4v10.5v4h4.1H48h1118.1h7.9h4.1v-4v-10.5V14.8V4.3L1178,0.4L1178,0.4z"/>
	</g>
	<g id="title_1_">
		<text transform="matrix(0.9222 0 0 1 94.1148 48.3613)" class="st3d st4d st5d">PROPAGANDA IN AMERICA</text>
		<text transform="matrix(0.83 0 0 1 94.1148 36.0059)" class="st3d st4d st6d">UNIT{{unitNumber}}</text>
		<text transform="matrix(0.83 0 0 1 164.8306 36.0059)" class="st3d st7d st6d">{{dayTitle}}</text>
	</g>
	<g id="preparation">
		<rect x="92.4" y="79.2" class="st0d" width="447.4" height="44.4"/>
		<rect id="bar" x="92.4" y="79.2" class="st8d" width="{{prepBarWidth}}" height="44.4"/>
		<g>
			<g>
				<path class="st0d" d="M537,82v38.8H95.3V82H537 M543,76.1h-3.1H92.4h-3.1v3.1v44.4v3.1h3.1h447.4h3.1v-3.1V79.2v-3.1L543,76.1
					L543,76.1z"/>
			</g>
		</g>
		<text transform="matrix(0.83 0 0 1 96.3648 151.2041)" class="st8d st4d st9d">PREPARATION</text>
		<g>
			<rect x="86.8" y="74.8" class="st10d" width="24.1" height="54.1"/>
			<rect x="110.9" y="74.8" class="st10d" width="24.1" height="54.1"/>
			<rect x="134.9" y="74.8" class="st10d" width="24.1" height="54.1"/>
			<rect x="159" y="74.8" class="st10d" width="24.1" height="54.1"/>
			<rect x="183" y="74.7" class="st10d" width="24.1" height="54.1"/>
			<rect x="207.1" y="74.7" class="st10d" width="24.1" height="54.1"/>
			<rect x="231.1" y="74.8" class="st10d" width="24.1" height="54.1"/>
			<rect x="255.2" y="74.9" class="st10d" width="24.1" height="54.1"/>
			<rect x="279.5" y="74.9" class="st10d" width="24.1" height="54.1"/>
			<rect x="303.6" y="74.9" class="st10d" width="24.1" height="54.1"/>
			<rect x="327.6" y="74.7" class="st10d" width="24.1" height="54.1"/>
			<rect x="375.7" y="74.8" class="st10d" width="24.1" height="54.1"/>
			<rect x="351.7" y="74.9" class="st10d" width="24.1" height="54.1"/>
			<rect x="86.7" y="74.9" class="st10d" width="24.1" height="54.1"/>
			<rect x="110.7" y="74.9" class="st10d" width="24.1" height="54.1"/>
			<rect x="134.8" y="74.9" class="st10d" width="24.1" height="54.1"/>
			<rect x="158.8" y="74.9" class="st10d" width="24.1" height="54.1"/>
			<rect x="182.9" y="74.8" class="st10d" width="24.1" height="54.1"/>
			<rect x="206.9" y="74.8" class="st10d" width="24.1" height="54.1"/>
			<rect x="231" y="74.9" class="st10d" width="24.1" height="54.1"/>
			<rect x="255" y="74.9" class="st10d" width="24.1" height="54.1"/>
			<rect x="279.4" y="74.9" class="st10d" width="24.1" height="54.1"/>
			<rect x="303.4" y="74.9" class="st10d" width="24.1" height="54.1"/>
			<rect x="327.5" y="74.8" class="st10d" width="24.1" height="54.1"/>
			<rect x="375.6" y="74.8" class="st10d" width="24.1" height="54.1"/>
			<rect x="399.6" y="74.8" class="st10d" width="24.1" height="54.1"/>
			<rect x="423.7" y="74.9" class="st10d" width="24.1" height="54.1"/>
			<rect x="447.7" y="75" class="st10d" width="24.1" height="54.1"/>
			<rect x="471.8" y="75" class="st10d" width="24.1" height="54.1"/>
			<rect x="495.8" y="74.8" class="st10d" width="24.1" height="54.1"/>
			<rect x="519.9" y="74.7" class="st10d" width="24.1" height="54.1"/>
			<g>
				<g>
					<path class="st11d" d="M542.1,76.7v3.1V124v3.1H539H92.1H89V124V79.8v-3.1h3.1H539L542.1,76.7 M545.5,73.3h-3.4H539H92.1H89
						h-3.4v3.4v3.1V124v3.1v3.4H89h3.1H539h3.1h3.4v-3.4V124V79.8v-3.1V73.3L545.5,73.3z"/>
				</g>
			</g>
		</g>
		<g id="dynamic_1_" transform="translate({{prepArrow}})">
			<text transform="matrix(0.83 0 0 1 75.0483 66.8672)" class="st8d st4d st12d">{{prepEarned}}/{{prepPossible}}</text>
			<g id="arrow">
				<polygon class="st8d" points="83.6,68.6 107.5,68.6 95.5,76.4 				"/>
				<path class="st13d" d="M104.1,69.6l-8.6,5.5l-8.6-5.5h8.6H104.1 M110.9,67.6h-6.8h-8.6h-8.6h-6.8l5.7,3.7l8.6,5.5l1.1,0.7
					l1.1-0.7l8.6-5.5L110.9,67.6L110.9,67.6z"/>
			</g>
		</g>
	</g>
	<g id="elective">
		<rect x="569.7" y="79.3" class="st0d" width="334" height="44.4"/>
		<rect id="bar_1_" x="569.7" y="79.3" class="st14d" width="{{electiveBarWidth}}" height="44.4"/>
		<g>
			<g>
				<path class="st0d" d="M900.1,82.1v38.8H573.4V82.1L900.1,82.1 M906.1,76.1h-2.3h-334h-2.3v3.1v44.4v3.1h2.3h334h2.3v-3.1V79.2
					V76.1L906.1,76.1z"/>
			</g>
		</g>
		<g>
			<g>
				<path class="st11d" d="M906.3,76.1v3.1v44.4v3.1H904H570h-2.3v-3.1V79.2v-3.1h2.3h334L906.3,76.1 M909.7,72.7h-3.4H904H570h-2.3
					h-3.4v3.4v3.1v44.4v3.1v3.4h3.4h2.3h334h2.3h3.4v-3.4v-3.1V79.2v-3.1V72.7L909.7,72.7z"/>
			</g>
		</g>
		<g id="dynamic_2_" transform="translate({{electiveArrow}})">
			<g id="arrow_1_">
				<polygon class="st14d" points="562.6,67.3 584.2,67.3 573.4,75.1 				"/>
				<path class="st13d" d="M581.1,68.3l-7.7,5.5l-7.7-5.5h7.7H581.1 M587.3,66.3h-6.2h-7.7h-7.7h-6.2l5,3.6l7.7,5.5l1.2,0.8l1.2-0.8
					l7.7-5.5L587.3,66.3L587.3,66.3z"/>
			</g>
			<text transform="matrix(0.7448 0 0 1 569.4209 65.5488)" class="st14d st4d st12d">{{electiveEarned}}</text>
		</g>
		<text transform="matrix(0.7448 0 0 1 573.7432 151.1416)" class="st14d st4d st9d">ELECTIVE</text>
	</g>
	<g>
		<text id="value_2_" transform="matrix(0.83 0 0 1 1045.834 117.5146)" class="st3d st4d st15d">{{dayEarned}}</text>
		<text transform="matrix(0.83 0 0 1 1112.8682 117.5146)" class="st3d st4d st16d">/{{dayPossible}}</text>
		<rect x="1036" y="52.8" class="st17d" width="105.8" height="78.7"/>
	</g>
	<g id="trophy">
		<g id="hidden">
			<circle class="st1d" cx="971.3" cy="92.2" r="39"/>
			<g>
				<polygon class="st18d" points="971.3,65 973.5,69.4 978.3,70.1 974.8,73.5 975.6,78.4 971.3,76.1 966.9,78.4 967.8,73.5 
					964.2,70.1 969.1,69.4 				"/>
				<polygon class="st19d" points="971.3,65 973.5,69.4 978.3,70.1 974.8,73.5 975.6,78.4 971.3,76.1 966.9,78.4 967.8,73.5 
					964.2,70.1 969.1,69.4 				"/>
				<g>
					<g>
						<path class="st19d" d="M959.9,92.6v-0.1c0-0.2,0-0.4,0-0.6v-0.1c0-0.2,0-0.4,0-0.5c0,0,0,0,0-0.1c0-0.2,0-0.4-0.1-0.5v-0.1
							c0-0.2,0-0.3-0.1-0.5l0,0c0-0.2,0-0.3-0.1-0.5v-0.1c0-0.2,0-0.3-0.1-0.5v-0.1c0-0.1,0-0.3-0.1-0.4l0,0c0-0.1,0-0.3-0.1-0.4V88
							c0-0.1,0-0.2-0.1-0.3c-2.2-0.4-4.3-1.8-4.3-1.8l-2.7,3c1.7,8.6,8.4,10.1,8.4,10.1l0.6-0.5c-0.7-1.5-1.2-3.2-1.4-5.3
							C959.9,93.1,959.9,92.8,959.9,92.6z"/>
						<path class="st19d" d="M987.6,85.9c0,0-2.1,1.4-4.3,1.8c-0.3,1.4-0.5,3.3-0.7,5.6c-0.1,2.1-0.6,3.8-1.4,5.3l0.6,0.5
							c0,0,6.7-1.5,8.4-10.1L987.6,85.9z"/>
						<path class="st19d" d="M992.2,88l-4.7-4.6c-0.8,2-2.8,2-3.7,1.9c0.5-1.5,1-2.3,1.3-2.5h1.3v-1.7h-15H971h-8.3H956v1.7h1.3
							c0,0,0,0,0.1,0.1l0,0c0,0,0,0,0.1,0.1l0,0c0,0,0.1,0.1,0.1,0.2l0,0c0,0,0,0.1,0.1,0.1l0,0c0,0,0,0.1,0.1,0.1l0,0
							c0,0,0,0.1,0.1,0.1l0,0c0,0,0,0.1,0.1,0.1l0,0c0,0,0,0.1,0.1,0.1l0,0c0,0,0.1,0.1,0.1,0.2l0,0c0,0.1,0.1,0.1,0.1,0.2l0,0
							c0,0.1,0.1,0.1,0.1,0.2l0,0c0,0.1,0.1,0.1,0.1,0.2l0,0c0,0.1,0,0.1,0.1,0.2l0,0c0,0.1,0.1,0.2,0.1,0.2s0,0,0,0.1
							s0,0.1,0.1,0.2c-0.8,0.1-2.8,0-3.7-1.9l-4.7,4.6c0,0,2.5,11.8,10.3,12.1c0,0.1,0,0.2,0,0.3c0,0.8,0.5,1.5,1.1,1.5
							c0.5,0,1-0.5,1.1-1.2c2.7,3.4,6.4,4.6,6.4,4.6s-1.1,0.9,0,1.9h0.6l0,0l0,0l0,0l0,0l0,0c0,0,0,0.1,0,0.2l0,0c0,0,0,0,0,0.1l0,0
							c0,0.2,0,0.4,0,0.7l0,0c0,2.1-0.5,6.9-4.3,9.4l0,0h-1.1v1.6h4.3h2.5h0.4h6.8v-1.6h-1.1c-4.9-3.2-4.3-10.5-4.3-10.5h0.6
							c1.1-1,0-1.9,0-1.9s3.7-1.2,6.4-4.6c0.1,0.7,0.5,1.2,1.1,1.2s1.1-0.7,1.1-1.5c0-0.1,0-0.2,0-0.3C989.7,99.8,992.2,88,992.2,88
							z M960.7,99c0,0-6.7-1.5-8.4-10.1l2.7-3c0,0,2.1,1.4,4.3,1.8c0,0.1,0,0.2,0.1,0.3v0.1c0,0.1,0,0.3,0.1,0.4l0,0
							c0,0.1,0,0.3,0.1,0.4V89c0,0.2,0,0.3,0.1,0.5v0.1c0,0.2,0,0.3,0.1,0.5l0,0c0,0.2,0,0.3,0.1,0.5v0.1c0,0.2,0,0.4,0.1,0.5
							c0,0,0,0,0,0.1c0,0.2,0,0.3,0,0.5v0.1c0,0.2,0,0.4,0,0.6v0.1c0,0.2,0,0.4,0,0.6c0.1,2.1,0.6,3.8,1.4,5.3L960.7,99z M981.8,99
							l-0.6-0.5c0.7-1.5,1.2-3.2,1.4-5.3c0.1-2.3,0.4-4.2,0.7-5.6c2.2-0.4,4.3-1.8,4.3-1.8l2.7,3C988.5,97.5,981.8,99,981.8,99z"/>
					</g>
					<g class="st20d">
						<g class="st21d">
							<path class="st22d" d="M961.8,99c0-0.2,0-0.5,0-0.9l-1,0.9c0,0-6.7-1.5-8.4-10.1l2.7-3c0,0,2.5,1.7,5,1.9
								c-0.3-0.6-0.6-2.3-1-2.5c0,0-3,0.6-4-1.9l-4.7,4.6c0,0,2.5,11.8,10.3,12.1c0,0.1,0,0.2,0,0.3c0,0.8,0.5,1.5,1.1,1.5
								s1.1-0.7,1.1-1.5C962.7,99.7,962.3,99.1,961.8,99z"/>
							<path class="st22d" d="M992.2,88l-4.7-4.6c-1.1,2.5-4,1.9-4,1.9c-0.3,0.2-0.7,1.9-1,2.5c2.4-0.2,5-1.9,5-1.9l2.7,3
								c-1.7,8.6-8.4,10.1-8.4,10.1l-1-0.9c0,0.4,0,0.7,0,0.9c-0.5,0.1-1,0.7-1,1.5s0.5,1.5,1.1,1.5s1.1-0.7,1.1-1.5
								c0-0.1,0-0.2,0-0.3C989.7,99.8,992.2,88,992.2,88z"/>
							<polygon class="st22d" points="971.5,81.1 971.1,81.1 956.1,81.1 956.1,82.8 971.1,82.8 971.5,82.8 986.5,82.8 986.5,81.1 
															"/>
							<path class="st22d" d="M971.5,82.6h-0.4h-13.9c0,0,2.2,1.3,2.8,10.7c0.6,9.4,9.2,12.1,9.2,12.1h2h0.4h2c0,0,8.6-2.8,9.2-12.1
								c0.6-9.4,2.8-10.7,2.8-10.7H971.5z"/>
							<path class="st22d" d="M973.5,105.4h-2h-0.4h-2c0,0-1.1,0.9,0,1.9h2h0.4h2C974.6,106.3,973.5,105.4,973.5,105.4z"/>
							<path class="st22d" d="M972.9,107.3h-1.4h-0.4h-1.4c0,0,0.7,7.5-4.5,10.6h6h0.4h6C972.2,114.8,972.9,107.3,972.9,107.3z"/>
							<polygon class="st22d" points="971.5,117.7 971.1,117.7 964.3,117.7 964.3,119.4 971.1,119.4 971.5,119.4 978.3,119.4 
								978.3,117.7 							"/>
							<path class="st22d" d="M964.7,92c-0.3-5.1-1.1-8.6-1.1-8.6l0.7-0.6h-7c0.6,0.6,2.1,2.9,2.6,10.5c0.6,9.4,9.2,12.1,9.2,12.1h2
								h0.4C967.9,104.6,965,97.1,964.7,92z"/>
							<path class="st22d" d="M965.4,117.7h3.8l3.6-10.5h-1.1h-0.4h-0.4h-1.4C969.7,107.3,970.3,114.5,965.4,117.7z"/>
							<rect x="964.3" y="117.7" class="st22d" width="4.3" height="1.6"/>
							<rect x="956.1" y="81.1" class="st22d" width="6.7" height="1.7"/>
						</g>
						<g class="st21d">
							<polygon class="st22d" points="967.2,78 971.3,72.4 968,73.5 							"/>
							<polygon class="st22d" points="975.3,78 971.3,72.4 971.3,75.8 							"/>
							<polygon class="st22d" points="977.8,70.3 971.3,72.4 974.6,73.5 							"/>
							<polygon class="st22d" points="971.3,65.5 971.3,72.4 969.3,69.6 							"/>
							<polygon class="st22d" points="971.3,65.5 971.3,72.4 973.3,69.6 							"/>
							<polygon class="st22d" points="964.7,70.3 971.3,72.4 968,73.5 							"/>
							<polygon class="st22d" points="967.2,78 971.3,72.4 971.3,75.8 							"/>
							<polygon class="st22d" points="975.3,78 971.3,72.4 974.6,73.5 							"/>
							<polygon class="st22d" points="977.8,70.3 971.3,72.4 973.3,69.6 							"/>
							<polygon class="st22d" points="964.7,70.3 971.3,72.4 969.3,69.6 							"/>
						</g>
					</g>
				</g>
			</g>
		</g>
		<g id="visible" class="st20d">
			<circle class="st23d" cx="971.3" cy="92.5" r="39"/>
			<circle class="st24d" cx="971.3" cy="92.5" r="39"/>
			<g class="st21d">
				
					<linearGradient id="SVGID_1_" gradientUnits="userSpaceOnUse" x1="964.2409" y1="1984" x2="978.324" y2="1984" gradientTransform="matrix(1 0 0 -1 0 2056)">
					<stop  offset="0" style="stop-color:#EEC45C"/>
					<stop  offset="1" style="stop-color:#FCF6B5"/>
				</linearGradient>
				<polygon class="st25d" points="971.3,65.3 973.5,69.7 978.3,70.4 974.8,73.8 975.6,78.7 971.3,76.4 966.9,78.7 967.8,73.8 
					964.2,70.4 969.1,69.7 				"/>
				
					<linearGradient id="SVGID_2_" gradientUnits="userSpaceOnUse" x1="964.2409" y1="1984" x2="978.324" y2="1984" gradientTransform="matrix(1 0 0 -1 0 2056)">
					<stop  offset="0" style="stop-color:#EEC45C"/>
					<stop  offset="1" style="stop-color:#FCF6B5"/>
				</linearGradient>
				<polygon class="st26d" points="971.3,65.3 973.5,69.7 978.3,70.4 974.8,73.8 975.6,78.7 971.3,76.4 966.9,78.7 967.8,73.8 
					964.2,70.4 969.1,69.7 				"/>
				<g>
					<g>
						<path class="st27d" d="M959.9,92.9v-0.1c0-0.2,0-0.4,0-0.6v-0.1c0-0.2,0-0.4,0-0.5c0,0,0,0,0-0.1c0-0.2,0-0.4-0.1-0.5v-0.1
							c0-0.2,0-0.3-0.1-0.5l0,0c0-0.2,0-0.3-0.1-0.5v-0.1c0-0.2,0-0.3-0.1-0.5v-0.1c0-0.1,0-0.3-0.1-0.4l0,0c0-0.1,0-0.3-0.1-0.4
							v-0.1c0-0.1,0-0.2-0.1-0.3c-2.2-0.4-4.3-1.8-4.3-1.8l-2.7,3c1.7,8.6,8.4,10.1,8.4,10.1l0.6-0.5c-0.7-1.5-1.2-3.2-1.4-5.3
							C959.9,93.3,959.9,93.1,959.9,92.9z"/>
						<path class="st27d" d="M987.6,86.2c0,0-2.1,1.4-4.3,1.8c-0.3,1.4-0.5,3.3-0.7,5.6c-0.1,2.1-0.6,3.8-1.4,5.3l0.6,0.5
							c0,0,6.7-1.5,8.4-10.1L987.6,86.2z"/>
						<path class="st28d" d="M992.2,88.3l-4.7-4.6c-0.8,2-2.8,2-3.7,1.9c0.5-1.5,1-2.3,1.3-2.5h1.3v-1.7h-15H971h-8.3H956v1.7h1.3
							c0,0,0,0,0.1,0.1l0,0c0,0,0,0,0.1,0.1l0,0c0,0,0.1,0.1,0.1,0.2l0,0c0,0,0,0.1,0.1,0.1l0,0c0,0,0,0.1,0.1,0.1l0,0
							c0,0,0,0.1,0.1,0.1l0,0c0,0,0,0.1,0.1,0.1l0,0c0,0,0,0.1,0.1,0.1l0,0c0,0,0.1,0.1,0.1,0.2l0,0c0,0.1,0.1,0.1,0.1,0.2l0,0
							c0,0.1,0.1,0.1,0.1,0.2l0,0c0,0.1,0.1,0.1,0.1,0.2l0,0c0,0.1,0,0.1,0.1,0.2l0,0c0,0.1,0.1,0.2,0.1,0.2s0,0,0,0.1
							s0,0.1,0.1,0.2c-0.8,0.1-2.8,0-3.7-1.9l-4.7,4.6c0,0,2.5,11.8,10.3,12.1c0,0.1,0,0.2,0,0.3c0,0.8,0.5,1.5,1.1,1.5
							c0.5,0,1-0.5,1.1-1.2c2.7,3.4,6.4,4.6,6.4,4.6s-1.1,0.9,0,1.9h0.6l0,0l0,0l0,0l0,0l0,0c0,0,0,0.1,0,0.2l0,0c0,0,0,0,0,0.1l0,0
							c0,0.2,0,0.4,0,0.7l0,0c0,2.1-0.5,6.9-4.3,9.4l0,0h-1.1v1.6h4.3h2.5h0.4h6.8V118h-1.1c-4.9-3.2-4.3-10.5-4.3-10.5h0.6
							c1.1-1,0-1.9,0-1.9s3.7-1.2,6.4-4.6c0.1,0.7,0.5,1.2,1.1,1.2s1.1-0.7,1.1-1.5c0-0.1,0-0.2,0-0.3
							C989.7,100.1,992.2,88.3,992.2,88.3z M960.7,99.3c0,0-6.7-1.5-8.4-10.1l2.7-3c0,0,2.1,1.4,4.3,1.8c0,0.1,0,0.2,0.1,0.3v0.1
							c0,0.1,0,0.3,0.1,0.4l0,0c0,0.1,0,0.3,0.1,0.4v0.1c0,0.2,0,0.3,0.1,0.5v0.1c0,0.2,0,0.3,0.1,0.5l0,0c0,0.2,0,0.3,0.1,0.5V91
							c0,0.2,0,0.4,0.1,0.5c0,0,0,0,0,0.1c0,0.2,0,0.3,0,0.5v0.1c0,0.2,0,0.4,0,0.6v0.1c0,0.2,0,0.4,0,0.6c0.1,2.1,0.6,3.8,1.4,5.3
							L960.7,99.3z M981.8,99.3l-0.6-0.5c0.7-1.5,1.2-3.2,1.4-5.3c0.1-2.3,0.4-4.2,0.7-5.6c2.2-0.4,4.3-1.8,4.3-1.8l2.7,3
							C988.5,97.8,981.8,99.3,981.8,99.3z"/>
					</g>
					<g>
						<g>
							<path class="st29d" d="M961.8,99.3c0-0.2,0-0.5,0-0.9l-1,0.9c0,0-6.7-1.5-8.4-10.1l2.7-3c0,0,2.5,1.7,5,1.9
								c-0.3-0.6-0.6-2.3-1-2.5c0,0-3,0.6-4-1.9l-4.7,4.6c0,0,2.5,11.8,10.3,12.1c0,0.1,0,0.2,0,0.3c0,0.8,0.5,1.5,1.1,1.5
								s1.1-0.7,1.1-1.5C962.7,100,962.3,99.4,961.8,99.3z"/>
							<path class="st30d" d="M992.2,88.3l-4.7-4.6c-1.1,2.5-4,1.9-4,1.9c-0.3,0.2-0.7,1.9-1,2.5c2.4-0.2,5-1.9,5-1.9l2.7,3
								c-1.7,8.6-8.4,10.1-8.4,10.1l-1-0.9c0,0.4,0,0.7,0,0.9c-0.5,0.1-1,0.7-1,1.5s0.5,1.5,1.1,1.5s1.1-0.7,1.1-1.5
								c0-0.1,0-0.2,0-0.3C989.7,100.1,992.2,88.3,992.2,88.3z"/>
							
								<linearGradient id="SVGID_3_" gradientUnits="userSpaceOnUse" x1="956.062" y1="1973.85" x2="986.503" y2="1973.85" gradientTransform="matrix(1 0 0 -1 0 2056)">
								<stop  offset="0" style="stop-color:#EEC45C"/>
								<stop  offset="1" style="stop-color:#FCF6B5"/>
							</linearGradient>
							<polygon class="st31d" points="971.5,81.3 971.1,81.3 956.1,81.3 956.1,83 971.1,83 971.5,83 986.5,83 986.5,81.3 							"/>
							
								<linearGradient id="SVGID_4_" gradientUnits="userSpaceOnUse" x1="957.1298" y1="1961.8" x2="985.4351" y2="1961.8" gradientTransform="matrix(1 0 0 -1 0 2056)">
								<stop  offset="0" style="stop-color:#EEC45C"/>
								<stop  offset="1" style="stop-color:#FCF6B5"/>
							</linearGradient>
							<path class="st32d" d="M971.5,82.8h-0.4h-13.9c0,0,2.2,1.3,2.8,10.7c0.6,9.4,9.2,12.1,9.2,12.1h2h0.4h2c0,0,8.6-2.8,9.2-12.1
								c0.6-9.4,2.8-10.7,2.8-10.7H971.5z"/>
							<path class="st29d" d="M973.5,105.7h-2h-0.4h-2c0,0-1.1,0.9,0,1.9h2h0.4h2C974.6,106.6,973.5,105.7,973.5,105.7z"/>
							
								<linearGradient id="SVGID_5_" gradientUnits="userSpaceOnUse" x1="965.117" y1="1943.1" x2="977.4479" y2="1943.1" gradientTransform="matrix(1 0 0 -1 0 2056)">
								<stop  offset="0" style="stop-color:#EEC45C"/>
								<stop  offset="1" style="stop-color:#FCF6B5"/>
							</linearGradient>
							<path class="st33d" d="M972.9,107.6h-1.4h-0.4h-1.4c0,0,0.7,7.5-4.5,10.6h6h0.4h6C972.2,115.1,972.9,107.6,972.9,107.6z"/>
							
								<linearGradient id="SVGID_6_" gradientUnits="userSpaceOnUse" x1="964.3" y1="1937.2" x2="978.2439" y2="1937.2" gradientTransform="matrix(1 0 0 -1 0 2056)">
								<stop  offset="0" style="stop-color:#EEC45C"/>
								<stop  offset="1" style="stop-color:#FCF6B5"/>
							</linearGradient>
							<polygon class="st34d" points="971.5,118 971.1,118 964.3,118 964.3,119.6 971.1,119.6 971.5,119.6 978.3,119.6 978.3,118 
															"/>
							<path class="st29d" d="M964.7,92.2c-0.3-5.1-1.1-8.6-1.1-8.6l0.7-0.6h-7c0.6,0.6,2.1,2.9,2.6,10.5c0.6,9.4,9.2,12.1,9.2,12.1
								h2h0.4C967.9,104.9,965,97.4,964.7,92.2z"/>
							<path class="st29d" d="M965.4,118h3.8l3.6-10.5h-1.1h-0.4h-0.4h-1.4C969.7,107.6,970.3,114.8,965.4,118z"/>
							<rect x="964.3" y="118" class="st29d" width="4.3" height="1.6"/>
							<rect x="956.1" y="81.3" class="st29d" width="6.7" height="1.7"/>
						</g>
						<g>
							
								<linearGradient id="SVGID_7_" gradientUnits="userSpaceOnUse" x1="967.229" y1="1980.55" x2="971.2825" y2="1980.55" gradientTransform="matrix(1 0 0 -1 0 2056)">
								<stop  offset="0" style="stop-color:#EEC45C"/>
								<stop  offset="1" style="stop-color:#FCF6B5"/>
							</linearGradient>
							<polygon class="st35d" points="967.2,78.2 971.3,72.7 968,73.7 							"/>
							<polygon class="st29d" points="975.3,78.2 971.3,72.7 971.3,76.1 							"/>
							<polygon class="st29d" points="977.8,70.5 971.3,72.7 974.6,73.7 							"/>
							<polygon class="st29d" points="971.3,65.8 971.3,72.7 969.3,69.9 							"/>
		
								<linearGradient id="SVGID_8_" gradientUnits="userSpaceOnUse" x1="971.2825" y1="1986.75" x2="973.3091" y2="1986.75" gradientTransform="matrix(1 0 0 -1 0 2056)">
								<stop  offset="0" style="stop-color:#EEC45C"/>
								<stop  offset="1" style="stop-color:#FCF6B5"/>
							</linearGradient>
							<polygon class="st36d" points="971.3,65.8 971.3,72.7 973.3,69.9 							"/>
							<polygon class="st29d" points="964.7,70.5 971.3,72.7 968,73.7 							"/>
							<polygon class="st29d" points="967.2,78.2 971.3,72.7 971.3,76.1 							"/>
		
								<linearGradient id="SVGID_9_" gradientUnits="userSpaceOnUse" x1="971.2825" y1="1980.55" x2="975.3358" y2="1980.55" gradientTransform="matrix(1 0 0 -1 0 2056)">
								<stop  offset="0" style="stop-color:#EEC45C"/>
								<stop  offset="1" style="stop-color:#FCF6B5"/>
							</linearGradient>
							<polygon class="st37d" points="975.3,78.2 971.3,72.7 974.6,73.7 							"/>
							
								<linearGradient id="SVGID_10_" gradientUnits="userSpaceOnUse" x1="971.2825" y1="1984.7" x2="977.8406" y2="1984.7" gradientTransform="matrix(1 0 0 -1 0 2056)">
								<stop  offset="0" style="stop-color:#EEC45C"/>
								<stop  offset="1" style="stop-color:#FCF6B5"/>
							</linearGradient>
							<polygon class="st38d" points="977.8,70.5 971.3,72.7 973.3,69.9 							"/>
							
								<linearGradient id="SVGID_11_" gradientUnits="userSpaceOnUse" x1="964.7242" y1="1984.7" x2="971.2825" y2="1984.7" gradientTransform="matrix(1 0 0 -1 0 2056)">
								<stop  offset="0" style="stop-color:#EEC45C"/>
								<stop  offset="1" style="stop-color:#FCF6B5"/>
							</linearGradient>
							<polygon class="st39d" points="964.7,70.5 971.3,72.7 969.3,69.9 							"/>
						</g>
					</g>
				</g>
			</g>
		</g>
	</g>
</g>
</svg>
