<?xml version="1.0" encoding="utf-8"?>
<!-- Generator: Adobe Illustrator 19.2.1, SVG Export Plug-In . SVG Version: 6.00 Build 0)  -->
<svg version="1.1" id="Layer_1" xmlns="http://www.w3.org/2000/svg" xmlns:xlink="http://www.w3.org/1999/xlink" x="0px" y="0px" viewBox="0 0 1220 123.7" style="enable-background:new 0 0 1220 123.7;" xml:space="preserve">
<style type="text/css">
    @import url('https://fonts.googleapis.com/css?family=Roboto:400,900');
	.st0u{fill:#E9E6D9;}
	.st1u{fill:none;stroke:#CDCBBF;stroke-width:4;stroke-miterlimit:10;}
	.st2u{fill:#30302F;}
	.st3u{font-family:'Roboto'; font-weight: 900;}
	.st4u{font-size:30.6015px;}
	.st5u{font-size:69.2595px;}
	.st6u{font-size:15.391px;}
	.st7u{fill:none;stroke:#2F2F2F;stroke-width:3.4002;stroke-miterlimit:10;}
	.st8u{display:none;fill:none;stroke:#CDCBBF;stroke-width:2;stroke-miterlimit:10;}
	.st9u{fill:none;stroke:#CDCBBF;stroke-width:2;stroke-miterlimit:10;}
	.st10u{display:none;}
	.st11u{display:inline;}
	.st12u{fill:none;}
	.st13u{fill:#40B771;}
	.st14u{fill:url(#SVGID_1_);stroke:#000000;stroke-width:2.6693;stroke-linejoin:round;stroke-miterlimit:10;}
	.st15u{fill:url(#SVGID_2_);}
	.st16u{fill:none;stroke:#000000;stroke-width:2.6693;stroke-linejoin:round;stroke-miterlimit:10;}
	.st17u{fill:#FCF6B5;stroke:#000000;stroke-width:2.6693;stroke-linejoin:round;stroke-miterlimit:10;}
	.st18u{fill:#EC8C5C;}
	.st19u{fill:#FCF6B5;}
	.st20u{fill:url(#SVGID_3_);}
	.st21u{fill:url(#SVGID_4_);}
	.st22u{fill:url(#SVGID_5_);}
	.st23u{fill:url(#SVGID_6_);}
	.st24u{fill:url(#SVGID_7_);}
	.st25u{fill:url(#SVGID_8_);}
	.st26u{fill:url(#SVGID_9_);}
	.st27u{fill:url(#SVGID_10_);}
	.st28u{fill:url(#SVGID_11_);}
</style>
<g id="borders">
	<rect class="st0u" width="1220.1" height="123.8"/>
	<rect x="37.9" class="st1u" width="1138.1" height="123.8"/>
	<line class="st1u" x1="28.6" y1="0.5" x2="28.6" y2="123.8"/>
	<line class="st1u" x1="1190.1" y1="0.5" x2="1190.1" y2="123.7"/>
</g>
<text id="unitTitle_1_" transform="matrix(0.83 0 0 1 94.1226 77.0043)" class="st2u st3u st4u">UNIT{{unitNumber}} - {{unitTitle}}</text>
<g id="unitValue_1_">
	<text id="value_1_" transform="matrix(0.8947 0 0 1 989.0703 95.3627)" class="st2u st3u st5u">{{unitEarned}}</text>
	<text id="total_1_" transform="matrix(0.8947 0 0 1 1102.29 95.3627)" class="st2u st3u st6u">/{{unitPossible}}</text>
	<rect x="981.4" y="30.7" class="st7u" width="160.5" height="78.7"/>
</g>
<g class="unitTrophy{{unitNumber}}">
	<g class="notAchieved">
		<circle class="st1u" cx="866.4" cy="69.7" r="39"/>
		<g>
			<polygon class="st8u" points="866.4,42.5 868.6,46.9 873.4,47.6 869.9,51 870.7,55.9 866.4,53.6 862,55.9 862.9,51 859.3,47.6 
				864.2,46.9 			"/>
			<polygon class="st9u" points="866.4,42.5 868.6,46.9 873.4,47.6 869.9,51 870.7,55.9 866.4,53.6 862,55.9 862.9,51 859.3,47.6 
				864.2,46.9 			"/>
			<g>
				<g>
					<path class="st9u" d="M855,70.1V70c0-0.2,0-0.4,0-0.6v-0.1c0-0.2,0-0.4,0-0.5c0,0,0,0,0-0.1c0-0.2,0-0.4-0.1-0.5v-0.1
						c0-0.2,0-0.3-0.1-0.5l0,0c0-0.2,0-0.3-0.1-0.5V67c0-0.2,0-0.3-0.1-0.5v-0.1c0-0.1,0-0.3-0.1-0.4l0,0c0-0.1,0-0.3-0.1-0.4v-0.1
						c0-0.1,0-0.2-0.1-0.3c-2.2-0.4-4.3-1.8-4.3-1.8l-2.7,3c1.7,8.6,8.4,10.1,8.4,10.1l0.6-0.5c-0.7-1.5-1.2-3.2-1.4-5.3
						C855,70.5,855,70.3,855,70.1z"/>
					<path class="st9u" d="M882.7,63.4c0,0-2.1,1.4-4.3,1.8c-0.3,1.4-0.5,3.3-0.7,5.6c-0.1,2.1-0.6,3.8-1.4,5.3l0.6,0.5
						c0,0,6.7-1.5,8.4-10.1L882.7,63.4z"/>
					<path class="st9u" d="M887.3,65.5l-4.7-4.6c-0.8,2-2.8,2-3.7,1.9c0.5-1.5,1-2.3,1.3-2.5h1.3v-1.7h-15h-0.4h-8.3h-6.7v1.7h1.3
						c0,0,0,0,0.1,0.1l0,0c0,0,0,0,0.1,0.1l0,0c0,0,0.1,0.1,0.1,0.2l0,0c0,0,0,0.1,0.1,0.1l0,0c0,0,0,0.1,0.1,0.1l0,0
						c0,0,0,0.1,0.1,0.1l0,0c0,0,0,0.1,0.1,0.1l0,0c0,0,0,0.1,0.1,0.1l0,0c0,0,0.1,0.1,0.1,0.2l0,0c0,0.1,0.1,0.1,0.1,0.2l0,0
						c0,0.1,0.1,0.1,0.1,0.2l0,0c0,0.1,0.1,0.1,0.1,0.2l0,0c0,0.1,0,0.1,0.1,0.2l0,0c0,0.1,0.1,0.2,0.1,0.2s0,0,0,0.1s0,0.1,0.1,0.2
						c-0.8,0.1-2.8,0-3.7-1.9l-4.7,4.6c0,0,2.5,11.8,10.3,12.1c0,0.1,0,0.2,0,0.3c0,0.8,0.5,1.5,1.1,1.5c0.5,0,1-0.5,1.1-1.2
						c2.7,3.4,6.4,4.6,6.4,4.6s-1.1,0.9,0,1.9h0.6l0,0l0,0l0,0l0,0l0,0c0,0,0,0.1,0,0.2l0,0c0,0,0,0,0,0.1l0,0c0,0.2,0,0.4,0,0.7
						l0,0c0,2.1-0.5,6.9-4.3,9.4l0,0h-1.1v1.6h4.3h2.5h0.4h6.8V95h-1.1c-4.9-3.2-4.3-10.5-4.3-10.5h0.6c1.1-1,0-1.9,0-1.9
						s3.7-1.2,6.4-4.6c0.1,0.7,0.5,1.2,1.1,1.2s1.1-0.7,1.1-1.5c0-0.1,0-0.2,0-0.3C884.8,77.3,887.3,65.5,887.3,65.5z M855.8,76.5
						c0,0-6.7-1.5-8.4-10.1l2.7-3c0,0,2.1,1.4,4.3,1.8c0,0.1,0,0.2,0.1,0.3v0.1c0,0.1,0,0.3,0.1,0.4l0,0c0,0.1,0,0.3,0.1,0.4v0.1
						c0,0.2,0,0.3,0.1,0.5v0.1c0,0.2,0,0.3,0.1,0.5l0,0c0,0.2,0,0.3,0.1,0.5v0.1c0,0.2,0,0.4,0.1,0.5c0,0,0,0,0,0.1
						c0,0.2,0,0.3,0,0.5v0.1c0,0.2,0,0.4,0,0.6v0.1c0,0.2,0,0.4,0,0.6c0.1,2.1,0.6,3.8,1.4,5.3L855.8,76.5z M877,76.5l-0.6-0.5
						c0.7-1.5,1.2-3.2,1.4-5.3c0.1-2.3,0.4-4.2,0.7-5.6c2.2-0.4,4.3-1.8,4.3-1.8l2.7,3C883.7,75,877,76.5,877,76.5z"/>
				</g>
				<g class="st10u">
					<g class="st11u">
						<path class="st12u" d="M856.9,76.5c0-0.2,0-0.5,0-0.9l-1,0.9c0,0-6.7-1.5-8.4-10.1l2.7-3c0,0,2.5,1.7,5,1.9
							c-0.3-0.6-0.6-2.3-1-2.5c0,0-3,0.6-4-1.9l-4.7,4.6c0,0,2.5,11.8,10.3,12.1c0,0.1,0,0.2,0,0.3c0,0.8,0.5,1.5,1.1,1.5
							s1.1-0.7,1.1-1.5C857.8,77.2,857.4,76.6,856.9,76.5z"/>
						<path class="st12u" d="M887.3,65.5l-4.7-4.6c-1.1,2.5-4,1.9-4,1.9c-0.3,0.2-0.7,1.9-1,2.5c2.4-0.2,5-1.9,5-1.9l2.7,3
							c-1.7,8.6-8.4,10.1-8.4,10.1l-1-0.9c0,0.4,0,0.7,0,0.9c-0.5,0.1-1,0.7-1,1.5s0.5,1.5,1.1,1.5s1.1-0.7,1.1-1.5
							c0-0.1,0-0.2,0-0.3C884.8,77.3,887.3,65.5,887.3,65.5z"/>
						<polygon class="st12u" points="866.6,58.5 866.2,58.5 851.2,58.5 851.2,60.2 866.2,60.2 866.6,60.2 881.6,60.2 881.6,58.5 
													"/>
						<path class="st12u" d="M866.6,60h-0.4h-13.9c0,0,2.2,1.3,2.8,10.7c0.6,9.4,9.2,12.1,9.2,12.1h2h0.4h2c0,0,8.6-2.8,9.2-12.1
							c0.6-9.4,2.8-10.7,2.8-10.7H866.6z"/>
						<path class="st12u" d="M868.6,82.9h-2h-0.4h-2c0,0-1.1,0.9,0,1.9h2h0.4h2C869.7,83.8,868.6,82.9,868.6,82.9z"/>
						<path class="st12u" d="M868,84.8h-1.4h-0.4h-1.4c0,0,0.7,7.5-4.5,10.6h6h0.4h6C867.4,92.3,868,84.8,868,84.8z"/>
						<polygon class="st12u" points="866.6,95.2 866.2,95.2 859.4,95.2 859.4,96.8 866.2,96.8 866.6,96.8 873.4,96.8 873.4,95.2 
													"/>
						<path class="st12u" d="M859.8,69.5c-0.3-5.1-1.1-8.6-1.1-8.6l0.7-0.6h-7c0.6,0.6,2.1,2.9,2.6,10.5c0.6,9.4,9.2,12.1,9.2,12.1h2
							h0.4C863,82.1,860.1,74.6,859.8,69.5z"/>
						<path class="st12u" d="M860.5,95.2h3.8l3.6-10.5h-1.1h-0.4H866h-1.4C864.8,84.8,865.4,92,860.5,95.2z"/>
						<rect x="859.4" y="95.2" class="st12u" width="4.3" height="1.6"/>
						<rect x="851.2" y="58.5" class="st12u" width="6.7" height="1.7"/>
					</g>
					<g class="st11u">
						<polygon class="st12u" points="862.3,55.5 866.4,49.9 863.1,50.9 						"/>
						<polygon class="st12u" points="870.4,55.5 866.4,49.9 866.4,53.3 						"/>
						<polygon class="st12u" points="872.9,47.7 866.4,49.9 869.7,50.9 						"/>
						<polygon class="st12u" points="866.4,43 866.4,49.9 864.4,47.1 						"/>
						<polygon class="st12u" points="866.4,43 866.4,49.9 868.4,47.1 						"/>
						<polygon class="st12u" points="859.8,47.7 866.4,49.9 863.1,50.9 						"/>
						<polygon class="st12u" points="862.3,55.5 866.4,49.9 866.4,53.3 						"/>
						<polygon class="st12u" points="870.4,55.5 866.4,49.9 869.7,50.9 						"/>
						<polygon class="st12u" points="872.9,47.7 866.4,49.9 868.4,47.1 						"/>
						<polygon class="st12u" points="859.8,47.7 866.4,49.9 864.4,47.1 						"/>
					</g>
				</g>
			</g>
		</g>
	</g>
	<g class="acheived">
		<circle class="st1u" cx="867.1" cy="69.6" r="39"/>
		<circle class="st13u" cx="867.1" cy="69.6" r="39"/>
		<g>
			
				<linearGradient id="SVGID_1_" gradientUnits="userSpaceOnUse" x1="860.0712" y1="1952.1" x2="874.1542" y2="1952.1" gradientTransform="matrix(1 0 0 -1 0 2001.2)">
				<stop  offset="0" style="stop-color:#EEC45C"/>
				<stop  offset="1" style="stop-color:#FCF6B5"/>
			</linearGradient>
			<polygon class="st14u" points="867.1,42.4 869.3,46.8 874.2,47.5 870.6,50.9 871.5,55.8 867.1,53.5 862.8,55.8 863.6,50.9 
				860.1,47.5 864.9,46.8 			"/>
			
				<linearGradient id="SVGID_2_" gradientUnits="userSpaceOnUse" x1="860.0712" y1="1952.1" x2="874.1542" y2="1952.1" gradientTransform="matrix(1 0 0 -1 0 2001.2)">
				<stop  offset="0" style="stop-color:#EEC45C"/>
				<stop  offset="1" style="stop-color:#FCF6B5"/>
			</linearGradient>
			<polygon class="st15u" points="867.1,42.4 869.3,46.8 874.2,47.5 870.6,50.9 871.5,55.8 867.1,53.5 862.8,55.8 863.6,50.9 
				860.1,47.5 864.9,46.8 			"/>
			<g>
				<g>
					<path class="st16u" d="M855.7,70v-0.1c0-0.2,0-0.4,0-0.6v-0.1c0-0.2,0-0.4,0-0.5c0,0,0,0,0-0.1c0-0.2,0-0.4-0.1-0.5V68
						c0-0.2,0-0.3-0.1-0.5l0,0c0-0.2,0-0.3-0.1-0.5v-0.1c0-0.2,0-0.3-0.1-0.5v-0.1c0-0.1,0-0.3-0.1-0.4l0,0c0-0.1,0-0.3-0.1-0.4
						v-0.1c0-0.1,0-0.2-0.1-0.3c-2.2-0.4-4.3-1.8-4.3-1.8l-2.7,3c1.7,8.6,8.4,10.1,8.4,10.1l0.6-0.5c-0.7-1.5-1.2-3.2-1.4-5.3
						C855.7,70.4,855.7,70.2,855.7,70z"/>
					<path class="st16u" d="M883.4,63.3c0,0-2.1,1.4-4.3,1.8c-0.3,1.4-0.5,3.3-0.7,5.6c-0.1,2.1-0.6,3.8-1.4,5.3l0.6,0.5
						c0,0,6.7-1.5,8.4-10.1L883.4,63.3z"/>
					<path class="st17u" d="M888.1,65.4l-4.7-4.6c-0.8,2-2.8,2-3.7,1.9c0.5-1.5,1-2.3,1.3-2.5h1.3v-1.7h-15h-0.4h-8.3h-6.7v1.7h1.3
						c0,0,0,0,0.1,0.1l0,0c0,0,0,0,0.1,0.1l0,0c0,0,0.1,0.1,0.1,0.2l0,0c0,0,0,0.1,0.1,0.1l0,0c0,0,0,0.1,0.1,0.1l0,0
						c0,0,0,0.1,0.1,0.1l0,0c0,0,0,0.1,0.1,0.1l0,0c0,0,0,0.1,0.1,0.1l0,0c0,0,0.1,0.1,0.1,0.2l0,0c0,0.1,0.1,0.1,0.1,0.2l0,0
						c0,0.1,0.1,0.1,0.1,0.2l0,0c0,0.1,0.1,0.1,0.1,0.2l0,0c0,0.1,0,0.1,0.1,0.2l0,0c0,0.1,0.1,0.2,0.1,0.2s0,0,0,0.1s0,0.1,0.1,0.2
						c-0.8,0.1-2.8,0-3.7-1.9l-4.7,4.6c0,0,2.5,11.8,10.3,12.1c0,0.1,0,0.2,0,0.3c0,0.8,0.5,1.5,1.1,1.5c0.5,0,1-0.5,1.1-1.2
						c2.7,3.4,6.4,4.6,6.4,4.6s-1.1,0.9,0,1.9h0.6l0,0l0,0l0,0l0,0l0,0c0,0,0,0.1,0,0.2l0,0c0,0,0,0,0,0.1l0,0c0,0.2,0,0.4,0,0.7
						l0,0c0,2.1-0.5,6.9-4.3,9.4l0,0h-1.1v1.6h4.3h2.5h0.4h6.8v-1.6H873c-4.9-3.2-4.3-10.5-4.3-10.5h0.6c1.1-1,0-1.9,0-1.9
						s3.7-1.2,6.4-4.6c0.1,0.7,0.5,1.2,1.1,1.2s1.1-0.7,1.1-1.5c0-0.1,0-0.2,0-0.3C885.5,77.2,888.1,65.4,888.1,65.4z M856.5,76.4
						c0,0-6.7-1.5-8.4-10.1l2.7-3c0,0,2.1,1.4,4.3,1.8c0,0.1,0,0.2,0.1,0.3v0.1c0,0.1,0,0.3,0.1,0.4l0,0c0,0.1,0,0.3,0.1,0.4v0.1
						c0,0.2,0,0.3,0.1,0.5V67c0,0.2,0,0.3,0.1,0.5l0,0c0,0.2,0,0.3,0.1,0.5v0.1c0,0.2,0,0.4,0.1,0.5c0,0,0,0,0,0.1
						c0,0.2,0,0.3,0,0.5v0.1c0,0.2,0,0.4,0,0.6V70c0,0.2,0,0.4,0,0.6c0.1,2.1,0.6,3.8,1.4,5.3L856.5,76.4z M877.7,76.4l-0.6-0.5
						c0.7-1.5,1.2-3.2,1.4-5.3c0.1-2.3,0.4-4.2,0.7-5.6c2.2-0.4,4.3-1.8,4.3-1.8l2.7,3C884.4,74.9,877.7,76.4,877.7,76.4z"/>
				</g>
				<g>
					<g>
						<path class="st18u" d="M857.6,76.4c0-0.2,0-0.5,0-0.9l-1,0.9c0,0-6.7-1.5-8.4-10.1l2.7-3c0,0,2.5,1.7,5,1.9
							c-0.3-0.6-0.6-2.3-1-2.5c0,0-3,0.6-4-1.9l-4.7,4.6c0,0,2.5,11.8,10.3,12.1c0,0.1,0,0.2,0,0.3c0,0.8,0.5,1.5,1.1,1.5
							s1.1-0.7,1.1-1.5C858.6,77.1,858.2,76.5,857.6,76.4z"/>
						<path class="st19u" d="M888.1,65.4l-4.7-4.6c-1.1,2.5-4,1.9-4,1.9c-0.3,0.2-0.7,1.9-1,2.5c2.4-0.2,5-1.9,5-1.9l2.7,3
							c-1.7,8.6-8.4,10.1-8.4,10.1l-1-0.9c0,0.4,0,0.7,0,0.9c-0.5,0.1-1,0.7-1,1.5s0.5,1.5,1.1,1.5s1.1-0.7,1.1-1.5
							c0-0.1,0-0.2,0-0.3C885.5,77.2,888.1,65.4,888.1,65.4z"/>
						
							<linearGradient id="SVGID_3_" gradientUnits="userSpaceOnUse" x1="851.9" y1="1941.95" x2="882.3411" y2="1941.95" gradientTransform="matrix(1 0 0 -1 0 2001.2)">
							<stop  offset="0" style="stop-color:#EEC45C"/>
							<stop  offset="1" style="stop-color:#FCF6B5"/>
						</linearGradient>
						<polygon class="st20u" points="867.3,58.4 866.9,58.4 851.9,58.4 851.9,60.1 866.9,60.1 867.3,60.1 882.3,60.1 882.3,58.4 
													"/>
						
							<linearGradient id="SVGID_4_" gradientUnits="userSpaceOnUse" x1="852.96" y1="1929.9" x2="881.2654" y2="1929.9" gradientTransform="matrix(1 0 0 -1 0 2001.2)">
							<stop  offset="0" style="stop-color:#EEC45C"/>
							<stop  offset="1" style="stop-color:#FCF6B5"/>
						</linearGradient>
						<path class="st21u" d="M867.3,59.9h-0.4H853c0,0,2.2,1.3,2.8,10.7c0.6,9.4,9.2,12.1,9.2,12.1h2h0.4h2c0,0,8.6-2.8,9.2-12.1
							c0.6-9.4,2.8-10.7,2.8-10.7H867.3z"/>
						<path class="st18u" d="M869.3,82.8h-2h-0.4h-2c0,0-1.1,0.9,0,1.9h2h0.4h2C870.4,83.7,869.3,82.8,869.3,82.8z"/>
						
							<linearGradient id="SVGID_5_" gradientUnits="userSpaceOnUse" x1="860.9473" y1="1911.2" x2="873.2782" y2="1911.2" gradientTransform="matrix(1 0 0 -1 0 2001.2)">
							<stop  offset="0" style="stop-color:#EEC45C"/>
							<stop  offset="1" style="stop-color:#FCF6B5"/>
						</linearGradient>
						<path class="st22u" d="M868.7,84.7h-1.4h-0.4h-1.4c0,0,0.7,7.5-4.5,10.6h6h0.4h6C868.1,92.2,868.7,84.7,868.7,84.7z"/>
						
							<linearGradient id="SVGID_6_" gradientUnits="userSpaceOnUse" x1="860.1407" y1="1905.25" x2="874.0847" y2="1905.25" gradientTransform="matrix(1 0 0 -1 0 2001.2)">
							<stop  offset="0" style="stop-color:#EEC45C"/>
							<stop  offset="1" style="stop-color:#FCF6B5"/>
						</linearGradient>
						<polygon class="st23u" points="867.3,95.1 866.9,95.1 860.1,95.1 860.1,96.8 866.9,96.8 867.3,96.8 874.1,96.8 874.1,95.1 
													"/>
						<path class="st18u" d="M860.6,69.4c-0.3-5.1-1.1-8.6-1.1-8.6l0.7-0.6h-7c0.6,0.6,2.1,2.9,2.6,10.5c0.6,9.4,9.2,12.1,9.2,12.1h2
							h0.4C863.7,82,860.8,74.5,860.6,69.4z"/>
						<path class="st18u" d="M861.2,95.1h3.8l3.6-10.5h-1.1h-0.4h-0.4h-1.4C865.5,84.7,866.1,91.9,861.2,95.1z"/>
						<rect x="860.1" y="95.1" class="st18u" width="4.3" height="1.6"/>
						<rect x="851.9" y="58.4" class="st18u" width="6.7" height="1.7"/>
					</g>
					<g>
						
							<linearGradient id="SVGID_7_" gradientUnits="userSpaceOnUse" x1="863.0593" y1="1948.6" x2="867.1127" y2="1948.6" gradientTransform="matrix(1 0 0 -1 0 2001.2)">
							<stop  offset="0" style="stop-color:#EEC45C"/>
							<stop  offset="1" style="stop-color:#FCF6B5"/>
						</linearGradient>
						<polygon class="st24u" points="863.1,55.4 867.1,49.8 863.8,50.8 						"/>
						<polygon class="st18u" points="871.2,55.4 867.1,49.8 867.1,53.2 						"/>
						<polygon class="st18u" points="873.7,47.6 867.1,49.8 870.4,50.8 						"/>
						<polygon class="st18u" points="867.1,42.9 867.1,49.8 865.1,47 						"/>
						
							<linearGradient id="SVGID_8_" gradientUnits="userSpaceOnUse" x1="867.1127" y1="1954.85" x2="869.1394" y2="1954.85" gradientTransform="matrix(1 0 0 -1 0 2001.2)">
							<stop  offset="0" style="stop-color:#EEC45C"/>
							<stop  offset="1" style="stop-color:#FCF6B5"/>
						</linearGradient>
						<polygon class="st25u" points="867.1,42.9 867.1,49.8 869.1,47 						"/>
						<polygon class="st18u" points="860.6,47.6 867.1,49.8 863.8,50.8 						"/>
						<polygon class="st18u" points="863.1,55.4 867.1,49.8 867.1,53.2 						"/>
						
							<linearGradient id="SVGID_9_" gradientUnits="userSpaceOnUse" x1="867.1127" y1="1948.6" x2="871.1661" y2="1948.6" gradientTransform="matrix(1 0 0 -1 0 2001.2)">
							<stop  offset="0" style="stop-color:#EEC45C"/>
							<stop  offset="1" style="stop-color:#FCF6B5"/>
						</linearGradient>
						<polygon class="st26u" points="871.2,55.4 867.1,49.8 870.4,50.8 						"/>
						
							<linearGradient id="SVGID_10_" gradientUnits="userSpaceOnUse" x1="867.1127" y1="1952.8" x2="873.6708" y2="1952.8" gradientTransform="matrix(1 0 0 -1 0 2001.2)">
							<stop  offset="0" style="stop-color:#EEC45C"/>
							<stop  offset="1" style="stop-color:#FCF6B5"/>
						</linearGradient>
						<polygon class="st27u" points="873.7,47.6 867.1,49.8 869.1,47 						"/>
						
							<linearGradient id="SVGID_11_" gradientUnits="userSpaceOnUse" x1="860.5545" y1="1952.8" x2="867.1127" y2="1952.8" gradientTransform="matrix(1 0 0 -1 0 2001.2)">
							<stop  offset="0" style="stop-color:#EEC45C"/>
							<stop  offset="1" style="stop-color:#FCF6B5"/>
						</linearGradient>
						<polygon class="st28u" points="860.6,47.6 867.1,49.8 865.1,47 						"/>
					</g>
				</g>
			</g>
		</g>
	</g>
</g>
</svg>
