<?xml version="1.0" encoding="utf-8"?>
<!-- Generator: Adobe Illustrator 19.2.1, SVG Export Plug-In . SVG Version: 6.00 Build 0)  -->
<svg version="1.1" id="Layer_1" xmlns="http://www.w3.org/2000/svg" xmlns:xlink="http://www.w3.org/1999/xlink" x="0px" y="0px" viewBox="0 0 1220 231.3" style="enable-background:new 0 0 1220 231.3;" xml:space="preserve">
<style type="text/css">
    @import url('https://fonts.googleapis.com/css?family=Roboto:400,900');
	.st0o{fill:#E9E6D9;}
	.st1o{fill:#CDCBBF;}
	.st2o{fill:none;stroke:#CDCBBF;stroke-width:4;stroke-miterlimit:10;}
	.st3o{fill:#30302F;}
	.st4o{font-family:'Roboto'; font-weight: 900;}
	.st5o{font-size:13.5px;}
	.st6o{font-size:31px;}
	.st7o{fill:#2F2F2F;}
	.st8o{font-size:30.6015px;}
	.st9o{fill:#40B771;}
	.st10o{font-size:22.2484px;}
	.st11o{fill:#E8E5D9;}
	.st12o{fill:none;stroke:#2F2F2F;stroke-width:3.415;stroke-miterlimit:10;}
</style>
<rect id="background" y="-0.1" class="st0o" width="1220" height="231.4"/>
<g id="overall_1_">
	<rect x="29.1" y="0" class="st0o" width="1162.7" height="230.8"/>
	<g>
		<g>
			<path class="st1o" d="M1176.3,3.9v13.8v195.8v13.8h-7.8H50.1h-7.8v-13.8V17.7V3.9h7.8h1118.4H1176.3 M1180.3-0.1h-4h-7.8H50.1
				h-7.8h-4v4v13.8v195.8v13.8v4h4h7.8h1118.4h7.8h4v-4v-13.8V17.7V3.9V-0.1L1180.3-0.1z"/>
		</g>
	</g>
	<line class="st2o" x1="29.1" y1="1.3" x2="29.1" y2="225.3"/>
	<line class="st2o" x1="1190.2" y1="2.6" x2="1190.2" y2="230.8"/>
	<g id="title_1_">
		<text transform="matrix(0.9222 0 0 1 93.3359 62.2732)" class="st3o st4o st5o">Modern Arts and Propaganda</text>
		<text transform="matrix(0.83 0 0 1 93.3354 48.8411)" class="st3o st4o st6o">FDHUM 214</text>
	</g>
	<g>
		<g>
			<path class="st7o" d="M1130.4,127.8v3.4V179v3.4h-7.2H94.5h-7.2V179v-47.8v-3.4h7.2h1028.7H1130.4 M1133.8,124.4h-3.4h-7.2H94.5
				h-7.2h-3.4v3.4v3.4V179v3.4v3.4h3.4h7.2h1028.7h7.2h3.4v-3.4v-3.4v-47.8v-3.4L1133.8,124.4L1133.8,124.4z"/>
		</g>
	</g>
	<text transform="matrix(0.83 0 0 1 92.4223 92.5457)" class="st3o st4o st8o">COURSE PROGRESS</text>
	<g id="dynamic_1_" transform="translate({{arrow}})">
		<text id="value_4_" transform="matrix(0.83 0 0 1 62.7353 112.1951)" class="st9o st4o st10o">{{overallEarned}}/{{overallPossible}}</text>
		<g id="arrow_2_">
			<polygon class="st9o" points="82.7,115.6 107.3,115.6 95,128.1 			"/>
			<path class="st11o" d="M104.3,116.9l-9.3,9.4l-9.3-9.4H95H104.3 M110.3,114.4h-6H95h-9.3h-6l4.2,4.3l9.3,9.4l1.8,1.8l1.8-1.8
				l9.3-9.4L110.3,114.4L110.3,114.4z"/>
		</g>
	</g>
	<rect id="bar_2_" x="92.6" y="131.3" class="st9o" width="{{barWidth}}" height="47.8"/>
	<g>
		<g>
			<path class="st0o" d="M1123,135.3v39.6H94.8v-39.6H1123 M1130.4,127.8h-7.2H94.5h-7.2v3.4V179v3.4h7.2h1028.7h7.2V179v-47.8
				L1130.4,127.8L1130.4,127.8z"/>
		</g>
	</g>
	<line class="st12o" x1="914" y1="127.8" x2="914" y2="182.3"/>
	<text transform="matrix(0.83 0 0 1 897.7827 210.1951)" class="st7o st4o st10o">{{passing}}</text>
</g>
</svg>
