<?xml version="1.0" encoding="utf-8"?>
<!-- Generator: Adobe Illustrator 19.0.0, SVG Export Plug-In . SVG Version: 6.00 Build 0)  -->
<svg version="1.1" id="Layer_1" xmlns="http://www.w3.org/2000/svg" xmlns:xlink="http://www.w3.org/1999/xlink" x="0px" y="0px"
	 viewBox="0 0 35 35" enable-background="new 0 0 35 35" xml:space="preserve">
<g>
	<circle fill="#2B2B30" cx="17.5" cy="17.5" r="17.5"/>
	<path fill="#FFFFFF" d="M9.3,17C9.2,17,9.2,17.1,9.3,17c-0.1,0.2-1.8,10.3-1.8,10.4c0.3,0,9.9-1.6,10.2-1.7c0.1,0,0.2,0,0.3-0.1
		c5.1-5.2,10.3-10.3,15.4-15.4c-0.3-0.7-0.6-1.3-1-1.9c-5,5-10,10-14.9,15c-0.8-0.8-1.5-1.5-2.3-2.3c5.1-5.1,10.1-10.2,15.2-15.3
		c-0.4-0.4-0.8-0.8-1.2-1.2C24.1,9.6,19,14.7,14,19.7c-0.8-0.7-1.5-1.5-2.3-2.2c5-5,14.9-14.9,14.9-14.9c-1-0.6-1.9-1-1.9-1
		 M15.3,24.1c-0.3,0-0.5,0.1-0.8,0.1s-0.5,0.1-0.8,0.1c-0.3,0.1-0.6,0.1-0.9,0.2c-0.3,0-0.5,0.1-0.8,0.1c-0.1,0-0.1,0-0.1,0
		c-0.1,0-0.2,0-0.3-0.1c-0.2-0.2-1.3-1.2-1.4-1.3c0-0.1,0-0.1,0-0.2c0.1-0.3,0.1-0.7,0.2-1c0.1-0.3,0.2-0.6,0.2-0.9
		c0-0.3,0-0.6,0.1-0.9c0.1-0.3,0.1-0.6,0.2-0.9c0,0,0-0.1,0.1-0.1c1.6,1.6,3.2,3.2,4.8,4.8C15.6,24,15.5,24.1,15.3,24.1z"/>
</g>
</svg>
